# xmcd CD Database Entry
#
# Track frame offsets:
# 183
# 25758
# 52458
# 82283
# 105258
# 120283
# 149733
# 169408
# 185830
# 223233
# 255333
# 284708
# 303458
#
# Disc length: 4266 seconds
#
# Revision: 4
# Processed by: cddbd v1.4b42PL1 Copyright (c) Steve Scherf et al.
# Submitted via: tcd 2.0b
#
DISCID=cf10a80d
DTITLE=Black Crowes - Black 'N' Blue
DYEAR=1900
DGENRE=
TTITLE0=Jealous again
TTITLE1=You're wrong
TTITLE2=Seeing things for the first time
TTITLE3=Boomer's story
TTITLE4=Live too fast blues
TTITLE5=She talks to angels
TTITLE6=Twice as hard
TTITLE7=Thick and thin
TTITLE8=Having a good time
TTITLE9=Seeing things for the first time (2)
TTITLE10=She talk to angels
TTITLE11=Could I have been so blind
TTITLE12=Hard to handle
EXTD=1-6: Secret accoustic show at "Ronnie Scott's jazz club", Soh
EXTD=o, London, 20 June 1991\n7-13: Live at Citi Hall, Sheffield, 
EXTD=13 October 1991
EXTT0=
EXTT1=
EXTT2=
EXTT3=
EXTT4=
EXTT5=
EXTT6=
EXTT7=
EXTT8=
EXTT9=
EXTT10=
EXTT11=
EXTT12=
PLAYORDER=
